<?xml version="1.0" encoding="UTF-8"?>
<svg width="42px" height="42px" viewBox="0 0 42 42" version="1.1" xmlns="http://www.w3.org/2000/svg" xmlns:xlink="http://www.w3.org/1999/xlink">
    <!-- Generator: Sketch 54.1 (76490) - https://sketchapp.com -->
    <title>medal</title>
    <desc>Created with Sketch.</desc>
    <g id="Page-1" stroke="none" stroke-width="1" fill="none" fill-rule="evenodd">
        <g id="Desktop-HD" transform="translate(-302.000000, -322.000000)" fill="#3EAD91" fill-rule="nonzero" stroke="#3EAD91">
            <g id="medal" transform="translate(303.000000, 323.000000)">
                <path d="M24.5489884,16.2305569 L18.4064906,21.9815376 L15.4585444,18.9752456 C15.1317343,18.6417264 14.593596,18.6341389 14.2574675,18.9580914 C13.9210064,19.2823737 13.9133519,19.8154767 14.240162,20.148996 L17.7758339,23.7467815 C18.1043078,24.0743628 18.6351246,24.085579 18.9772434,23.7718532 L25.7334251,17.4551103 C25.8974957,17.3017113 25.9933422,17.0899216 25.9996655,16.8665857 C26.0059887,16.6432499 25.9224558,16.4265119 25.7673708,16.2642057 C25.438564,15.9254082 24.896432,15.9105632 24.5489884,16.2305569 L24.5489884,16.2305569 Z" id="Path"></path>
                <path d="M19.9998432,8 C13.381512,8 8,13.381512 8,19.9998432 C8,26.618488 13.381512,32 19.9998432,32 C26.618488,32 32,26.618488 32,19.9998432 C32,13.381512 26.618488,8 19.9998432,8 Z M19.9998432,30.3935785 C14.2650439,30.3935785 9.6064215,25.7267986 9.6064215,19.9998432 C9.6064215,14.2728878 14.2650439,9.6064215 19.9998432,9.6064215 C25.74029,9.6064215 30.3935785,14.2597101 30.3935785,19.9998432 C30.3935785,25.7399762 25.74029,30.3935785 19.9998432,30.3935785 Z" id="Shape"></path>
                <path d="M37.1518397,15.417284 L37.4271344,10.4740236 C37.4463562,10.1422152 37.2658671,9.83059541 36.9684184,9.682112 L32.56468,7.45648882 L30.3378876,3.05506262 C30.1863941,2.76037507 29.8765653,2.58095767 29.54556,2.5965875 L24.5912321,2.86359707 L20.4627884,0.137493707 C20.1845615,-0.0458312356 19.8239091,-0.0458312356 19.5453565,0.137493707 L15.4169127,2.86359707 L10.4713811,2.5884469 C10.1390727,2.56890961 9.82761495,2.74930398 9.67905352,3.04692202 L7.45193545,7.44834822 L3.04852269,9.6739714 C2.75335464,9.82505979 2.57416867,10.1347259 2.58980672,10.465883 L2.86477575,15.4091434 L0.137565938,19.5354194 C-0.0458553126,19.8135002 -0.0458553126,20.1739633 0.137565938,20.4523696 L2.85663087,24.5867863 L2.58133615,29.5300467 C2.56211437,29.8618551 2.74227773,30.1734748 3.04005212,30.3219583 L7.44379057,32.5475814 L9.67058296,36.9490076 C9.82175072,37.2440207 10.1315795,37.4231126 10.4629105,37.4074828 L15.4087679,37.1323326 L19.5372116,39.8581104 C19.8138096,40.0472965 20.1780456,40.0472965 20.4546435,39.8581104 L24.5830873,37.1323326 L29.5289446,37.4074828 C29.8609273,37.4266944 30.172385,37.2463001 30.3212722,36.9490076 L32.5480646,32.5475814 L36.951803,30.3219583 C37.2466454,30.1705443 37.426157,29.8612038 37.410519,29.5300467 L37.1352243,24.5867863 L39.8624341,20.4605102 C40.0458553,20.1824294 40.0458553,19.8216408 39.8624341,19.54356 L37.1518397,15.417284 Z M35.6004154,23.9033067 C35.4987681,24.0524413 35.4515281,24.2318588 35.4671662,24.4119274 L35.7255198,29.0881783 L31.5638452,31.1887628 C31.4051841,31.2682144 31.2764961,31.3971606 31.1970027,31.5557382 L29.0949889,35.7152277 L24.4162815,35.4570097 C24.2370956,35.4504974 24.0601902,35.4967356 23.9073935,35.590189 L20.0040724,38.1661809 L16.1010771,35.590189 C15.9655474,35.4986893 15.8059091,35.4491948 15.6423611,35.4485436 L15.6006597,35.4485436 L10.9216265,35.7070871 L8.81993848,31.5472721 C8.74044509,31.3886944 8.61175707,31.2600739 8.45277029,31.1806222 L4.28262511,29.0881783 L4.54130439,24.4119274 C4.54782024,24.2328356 4.50123188,24.0560231 4.40772946,23.9033067 L1.83071002,20.0020351 L4.40772946,16.1007636 C4.50970253,15.9519545 4.55694243,15.7722114 4.54130439,15.5924683 L4.28262511,10.915892 L8.44462541,8.81530744 C8.60328643,8.73585579 8.73197452,8.60723526 8.81146791,8.44865756 L10.9131559,4.28884257 L15.5921891,4.54738603 C15.7710492,4.55357286 15.9479546,4.50733456 16.1010771,4.41388124 L20.0040724,1.8382149 L23.9073935,4.41388124 C24.0566064,4.51580076 24.2364439,4.56301586 24.4162815,4.54738603 L29.0949889,4.28884257 L31.1970027,8.44865756 C31.2764961,8.60723526 31.4051841,8.73585579 31.5638452,8.81530744 L35.7255198,10.915892 L35.4671662,15.5924683 C35.4606503,15.7712345 35.5072387,15.948047 35.6004154,16.1007636 L38.1777605,20.0020351 L35.6004154,23.9033067 Z" id="Shape"></path>
            </g>
        </g>
    </g>
</svg>